<svg xmlns="http://www.w3.org/2000/svg" width="721.333" height="721.333" preserveAspectRatio="xMidYMid meet" version="1.0" viewBox="0 0 541 541"><metadata>Created by potrace 1.15, written by Peter Selinger 2001-2017</metadata><g fill="#000" stroke="none"><path d="M2455 5399 c-222 -21 -475 -79 -681 -154 -148 -54 -424 -194 -554 -281 -411 -274 -720 -624 -935 -1059 -94 -191 -140 -310 -190 -490 -146 -533 -121 -1119 70 -1641 54 -148 194 -424 280 -554 274 -410 626 -721 1060 -935 191 -94 310 -140 490 -190 533 -146 1119 -121 1641 70 148 54 424 194 554 280 308 206 569 467 775 775 86 130 226 406 280 554 191 522 216 1108 70 1641 -50 180 -96 299 -190 490 -212 431 -525 786 -928 1055 -136 91 -411 230 -561 285 -366 134 -798 190 -1181 154z m598 -773 l318 -528 -52 -141 c-28 -78 -55 -148 -59 -156 -4 -8 -114 253 -279 665 -149 374 -271 683 -271 687 0 34 63 -63 343 -527z m-528 487 c-8 -21 -145 -362 -303 -758 l-288 -720 -138 -8 c-77 -4 -141 -6 -143 -4 -7 8 862 1527 874 1527 10 0 9 -9 -2 -37z m538 22 c796 -119 1476 -612 1840 -1335 l68 -135 -178 -6 c-98 -4 -365 -7 -593 -8 l-415 -1 -139 231 -138 231 32 91 c68 191 155 326 231 357 26 11 34 10 57 -7 63 -46 78 -156 42 -291 -21 -78 -25 -84 -59 -98 -81 -34 -125 -106 -119 -196 5 -70 40 -121 109 -156 122 -64 272 30 272 172 0 61 -19 102 -68 145 l-36 32 15 47 c37 112 38 260 2 346 -21 51 -73 103 -121 122 -150 57 -307 -79 -415 -358 l-25 -68 -268 444 c-147 244 -267 446 -267 450 0 10 64 7 173 -9z m-1123 -747 c-233 -409 -428 -748 -434 -754 -8 -8 -171 -13 -548 -18 -509 -6 -537 -5 -531 11 25 74 158 322 231 433 340 513 850 875 1443 1025 98 25 251 54 257 49 2 -1 -186 -337 -418 -746z m962 -59 l275 -686 -345 -6 c-410 -8 -762 -9 -762 -2 0 10 552 1386 555 1383 2 -2 127 -312 277 -689z m1032 -301 c36 -52 5 -112 -56 -110 -44 1 -72 35 -64 77 8 38 30 55 72 55 23 0 38 -7 48 -22z m-361 -264 c37 -62 67 -115 67 -118 0 -3 -67 -6 -150 -6 -82 0 -150 3 -150 8 0 4 25 74 55 156 30 82 55 152 55 155 0 6 38 -54 123 -195z m1517 -476 c53 -215 64 -320 64 -583 1 -243 -10 -349 -50 -526 l-16 -69 -47 0 c-64 0 -134 -22 -205 -65 -33 -20 -62 -32 -66 -28 -15 17 -290 482 -290 490 0 4 56 48 125 97 68 49 122 93 119 98 -3 4 -88 8 -189 8 l-184 0 -81 135 c-45 75 -80 140 -78 145 2 6 188 131 413 279 l410 269 23 -67 c13 -36 36 -119 52 -183z m-335 228 c-78 -54 -637 -417 -639 -414 -9 11 -246 410 -246 413 0 6 202 10 585 13 273 2 317 0 300 -12z m-889 -241 c81 -135 145 -247 143 -249 -52 -42 -352 -226 -358 -220 -10 11 -281 690 -281 704 0 6 65 10 175 10 l174 0 147 -245z m-716 228 c0 -5 -64 -185 -142 -400 l-143 -393 -556 0 c-516 0 -558 1 -577 18 -21 17 -20 18 130 394 l152 377 85 4 c184 7 1051 7 1051 0z m-1720 -7 c0 -6 -221 -390 -230 -399 -4 -5 -142 81 -305 190 l-298 198 314 5 c173 3 360 6 417 8 56 1 102 0 102 -2z m437 -28 c-7 -18 -69 -171 -137 -340 -68 -170 -127 -308 -132 -308 -4 0 -73 43 -153 96 l-145 97 33 57 c17 31 79 141 137 243 l105 187 153 0 152 0 -13 -32z m-1112 -238 c206 -138 375 -253 375 -257 0 -9 -107 -199 -132 -235 -18 -26 -24 -28 -91 -28 -119 0 -143 7 -171 51 -56 83 -174 108 -262 54 -138 -86 -122 -287 28 -350 93 -38 212 8 248 96 12 28 14 29 86 29 41 0 74 -2 74 -5 0 -18 -466 -823 -473 -816 -15 15 -88 236 -117 353 -53 216 -64 321 -64 583 -1 250 10 356 54 545 24 99 61 230 67 230 2 0 172 -113 378 -250z m2781 -506 c-4 -11 -56 -14 -271 -14 -146 0 -265 2 -265 5 0 5 220 612 252 695 8 22 28 -20 149 -324 77 -192 138 -355 135 -362z m608 92 c31 -52 56 -97 56 -100 0 -3 -100 -6 -222 -6 l-223 0 159 105 c87 58 162 103 166 100 4 -2 33 -47 64 -99z m-2762 -7 c68 -45 127 -86 133 -90 5 -5 -73 -9 -183 -9 -135 0 -192 3 -192 11 0 24 95 179 107 174 7 -2 67 -41 135 -86z m-753 -115 c35 -44 26 -89 -22 -109 -39 -16 -80 -3 -96 31 -16 35 -14 47 10 78 15 19 30 26 54 26 24 0 39 -7 54 -26z m877 -121 c-3 -10 -80 -202 -170 -428 l-164 -410 -64 5 c-127 10 -353 3 -447 -14 -52 -9 -95 -15 -97 -14 -2 2 372 664 472 836 l25 42 225 0 c210 0 225 -1 220 -17z m605 -250 c219 -148 397 -271 396 -275 -2 -6 -495 -333 -739 -490 l-76 -49 -54 34 c-77 49 -182 101 -269 132 l-76 27 164 411 c91 227 171 427 178 445 27 63 40 57 476 -235z m698 250 c0 -10 -35 -112 -78 -228 -54 -147 -82 -211 -94 -213 -14 -3 -687 441 -687 453 0 3 194 5 430 5 403 0 430 -1 429 -17z m371 7 l145 0 -242 -160 c-134 -88 -245 -160 -247 -160 -6 0 106 303 118 318 7 10 22 12 46 8 19 -3 100 -6 180 -6z m509 -211 c46 -115 82 -211 80 -213 -18 -16 -555 -399 -565 -403 -6 -2 -112 62 -233 143 -182 121 -219 150 -209 161 7 7 189 127 403 268 249 162 399 255 415 255 23 0 31 -15 109 -211z m606 190 c4 -11 5 -22 3 -23 -32 -26 -403 -289 -412 -292 -8 -3 -34 51 -75 153 -35 87 -65 164 -68 171 -4 9 54 12 270 12 270 0 276 0 282 -21z m234 -386 c106 -176 151 -260 145 -269 -5 -7 -46 -60 -91 -117 -87 -110 -98 -140 -64 -171 41 -37 68 -19 173 109 152 187 224 246 319 261 l42 7 -7 -29 c-17 -68 -82 -228 -141 -349 -106 -217 -253 -425 -427 -610 l-76 -80 -12 30 c-6 17 -112 281 -236 587 -123 307 -224 562 -224 567 0 9 428 321 440 321 3 0 74 -115 159 -257z m-531 -573 c226 -562 214 -533 200 -524 -34 21 -799 531 -841 561 l-47 35 252 183 c139 100 256 179 259 176 3 -3 83 -197 177 -431z m-1608 -190 c-105 -288 -189 -525 -187 -527 3 -2 223 154 490 346 267 192 491 352 497 356 9 5 1064 -689 1108 -730 10 -9 -2 -23 -60 -70 -333 -266 -737 -441 -1180 -512 -159 -25 -547 -25 -706 0 -289 46 -581 143 -816 271 -159 87 -303 189 -485 344 l-33 28 333 219 332 219 61 -66 c65 -70 113 -152 123 -211 5 -35 5 -36 -38 -47 -65 -17 -133 -91 -148 -159 -43 -203 172 -348 319 -215 79 72 93 202 31 291 -23 33 -31 55 -31 87 0 98 -63 231 -164 343 l-43 48 391 257 c215 141 392 255 394 254 1 -2 -83 -238 -188 -526z m698 255 c-2 -1 -131 -94 -288 -206 -157 -113 -300 -215 -317 -228 l-33 -22 39 108 c60 166 198 545 210 576 l11 27 190 -126 c104 -70 189 -128 188 -129z m-1990 -52 c13 -3 21 -11 19 -17 -123 -310 -221 -546 -226 -546 -9 1 -139 162 -199 248 -53 76 -162 255 -162 266 0 12 149 44 270 56 74 8 253 4 298 -7z m250 -63 c91 -36 215 -101 218 -115 3 -9 -507 -348 -513 -341 -1 1 41 111 94 244 59 148 102 242 110 242 8 0 48 -14 91 -30z m552 -650 c20 0 50 -46 50 -76 0 -46 -9 -63 -42 -80 -71 -37 -142 41 -103 116 16 32 50 52 73 44 8 -2 18 -4 22 -4z" transform="translate(0.000000,541.000000) scale(0.100000,-0.100000)"/></g></svg>