<?xml version="1.0" standalone="no"?>
<!DOCTYPE svg PUBLIC "-//W3C//DTD SVG 20010904//EN"
 "http://www.w3.org/TR/2001/REC-SVG-20010904/DTD/svg10.dtd">
<svg version="1.0" xmlns="http://www.w3.org/2000/svg"
 width="291.000000pt" height="250.000000pt" viewBox="0 0 291.000000 250.000000"
 preserveAspectRatio="xMidYMid meet">
<metadata>
Created by potrace 1.15, written by Peter Selinger 2001-2017
</metadata>
<g transform="translate(0.000000,250.000000) scale(0.100000,-0.100000)"
fill="#000000" stroke="none">
<path d="M1343 2470 c-167 -30 -417 -181 -514 -310 -86 -114 -137 -300 -126
-452 5 -60 16 -101 47 -176 24 -56 44 -124 49 -161 8 -66 4 -111 -9 -111 -4 0
-34 28 -67 63 -111 119 -163 267 -163 465 0 115 18 208 50 272 11 22 18 40 14
40 -3 0 -48 -31 -99 -70 -96 -72 -208 -185 -278 -280 -91 -123 -183 -334 -213
-487 -19 -98 -18 -336 1 -433 44 -230 159 -450 324 -624 58 -61 200 -180 207
-173 2 2 -14 37 -36 77 -66 119 -87 229 -60 307 22 62 93 73 146 22 18 -18 35
-31 38 -28 2 2 11 39 21 82 22 101 39 142 81 194 43 52 182 130 191 107 3 -8
3 -53 1 -100 -4 -82 -7 -92 -65 -203 -88 -168 -98 -245 -49 -363 20 -48 91
-108 128 -108 34 0 35 11 8 99 -17 52 -19 73 -11 121 11 67 24 95 86 183 49
71 94 165 121 254 23 76 31 84 39 39 5 -23 -1 -87 -15 -168 -30 -182 -20 -239
59 -321 50 -54 83 -70 106 -53 16 12 16 17 -14 77 -22 46 -31 78 -31 114 0 71
31 173 68 228 52 74 102 75 151 4 39 -57 62 -128 68 -209 5 -60 3 -73 -26
-133 -18 -36 -29 -70 -26 -75 14 -22 57 -9 101 32 92 85 105 144 73 336 -21
128 -21 192 0 192 5 0 11 -12 14 -27 14 -68 75 -204 125 -278 30 -44 64 -99
74 -123 26 -58 27 -153 4 -214 -10 -26 -16 -54 -13 -63 20 -50 135 31 160 113
39 122 30 179 -56 343 -60 117 -61 119 -65 214 -3 67 -1 95 7 95 6 0 42 -16
80 -35 107 -53 158 -128 187 -273 9 -42 18 -79 20 -81 2 -3 19 9 37 26 35 34
58 41 100 30 51 -14 73 -122 46 -222 -13 -47 -55 -138 -82 -178 -11 -16 -17
-30 -15 -33 10 -10 139 99 217 183 136 146 222 293 280 473 40 127 51 200 51
356 0 214 -36 362 -135 554 -59 114 -126 203 -234 311 -84 84 -217 187 -227
176 -3 -3 2 -19 10 -36 45 -87 60 -301 31 -443 -20 -100 -78 -209 -149 -285
-32 -35 -62 -63 -66 -63 -33 0 -11 151 40 275 66 161 66 293 -1 478 -39 109
-109 199 -206 269 -192 136 -311 186 -465 193 -51 2 -116 0 -145 -5z m-247
-921 c43 -22 91 -54 105 -71 27 -29 57 -113 46 -124 -3 -4 -47 9 -97 26 -102
37 -123 58 -135 130 -3 25 -9 53 -11 63 -7 25 3 22 92 -24z m810 24 c-2 -10
-8 -38 -11 -63 -11 -69 -35 -95 -113 -121 -37 -12 -79 -28 -94 -36 -34 -16
-35 -10 -13 65 17 57 38 77 145 135 74 41 94 45 86 20z"/>
</g>
</svg>
