<?xml version="1.0" standalone="no"?>
<!DOCTYPE svg PUBLIC "-//W3C//DTD SVG 20010904//EN"
 "http://www.w3.org/TR/2001/REC-SVG-20010904/DTD/svg10.dtd">
<svg version="1.0" xmlns="http://www.w3.org/2000/svg"
 width="200.000000pt" height="200.000000pt" viewBox="0 0 200.000000 200.000000"
 preserveAspectRatio="xMidYMid meet">
<metadata>
Created by potrace 1.15, written by Peter Selinger 2001-2017
</metadata>
<g transform="translate(0.000000,200.000000) scale(0.100000,-0.100000)"
fill="#000000" stroke="none">
<path d="M940 1984 c0 -6 18 -129 40 -274 43 -285 45 -307 26 -359 -11 -30
-19 -36 -64 -47 -63 -16 -124 -47 -175 -87 -38 -29 -40 -30 -89 -18 -28 6 -52
10 -53 9 -97 -114 -179 -220 -218 -280 -48 -76 -50 -78 -131 -111 -77 -32 -83
-36 -119 -96 -21 -35 -37 -67 -35 -71 2 -5 26 8 54 30 40 30 67 42 120 52 56
10 78 20 123 57 47 38 58 43 80 35 25 -9 26 -14 32 -99 7 -91 19 -137 59 -214
12 -24 19 -49 16 -57 -3 -8 -27 -24 -53 -35 -40 -17 -62 -39 -138 -137 -49
-64 -114 -147 -143 -184 -29 -37 -49 -68 -44 -68 5 0 83 57 173 127 127 98
181 133 237 155 40 15 79 28 85 28 7 0 50 -25 96 -56 91 -61 195 -114 225
-114 10 0 31 11 48 25 22 19 41 25 76 25 64 0 142 22 207 59 51 29 57 30 107
21 28 -6 54 -14 57 -19 4 -4 24 -18 47 -29 32 -16 52 -19 100 -15 l59 5 16
-40 c11 -26 32 -50 64 -72 48 -33 48 -33 42 -8 -4 13 -22 59 -41 101 l-35 77
-45 0 c-41 0 -51 5 -106 56 -48 45 -59 61 -54 78 15 52 59 137 117 223 50 77
71 100 114 124 45 26 128 108 118 117 -2 2 -22 -9 -46 -24 -42 -26 -44 -26
-90 -12 -44 14 -50 14 -94 -5 l-48 -21 -24 30 c-45 56 -83 194 -83 305 l0 47
78 48 c62 40 90 51 147 59 l70 10 32 114 c18 63 31 117 28 119 -2 3 -25 -39
-49 -92 -25 -53 -48 -96 -53 -96 -4 0 -46 7 -93 14 l-85 15 -98 -58 -98 -58
-145 57 c-79 31 -148 61 -153 66 -23 25 -124 315 -151 433 -27 120 -40 164
-40 135z"/>
</g>
</svg>
